<svg xmlns="http://www.w3.org/2000/svg" width="17.333" height="27.177" viewBox="0 0 17.333 27.177">
  <path id="Icon_metro-inr" data-name="Icon metro-inr" d="M27.6,11.008v1.969a.595.595,0,0,1-.618.618H23.741a7.214,7.214,0,0,1-2.49,4.517,9.788,9.788,0,0,1-5.327,2.123q3.223,3.436,8.86,10.346a.528.528,0,0,1,.077.656.561.561,0,0,1-.56.347H20.536a.569.569,0,0,1-.483-.232q-5.906-7.084-9.612-11.021a.578.578,0,0,1-.174-.425V17.455a.626.626,0,0,1,.618-.618h2.162a8.712,8.712,0,0,0,4.1-.83,3.772,3.772,0,0,0,1.978-2.413H10.885a.595.595,0,0,1-.618-.618V11.008a.595.595,0,0,1,.618-.618h7.972q-1.1-2.181-5.173-2.181h-2.8a.626.626,0,0,1-.618-.618V5.025a.595.595,0,0,1,.618-.618H26.945a.595.595,0,0,1,.618.618V6.993a.595.595,0,0,1-.618.618h-4.5a6.677,6.677,0,0,1,1.235,2.78h3.3a.595.595,0,0,1,.618.618Z" transform="translate(-10.268 -4.407)" fill="#3a3a3a"/>
</svg>
